<?xml version="1.0" encoding="UTF-8" standalone="no"?>
<!-- Generator: Gravit.io -->
<svg xmlns="http://www.w3.org/2000/svg" xmlns:xlink="http://www.w3.org/1999/xlink" style="isolation:isolate" viewBox="0 0 2048 2048" width="2048pt" height="2048pt"><defs><clipPath id="_clipPath_8XAKfyRBfcvNFn1ZXBMmUOBcQQoqkvle"><rect width="2048" height="2048"/></clipPath></defs><g clip-path="url(#_clipPath_8XAKfyRBfcvNFn1ZXBMmUOBcQQoqkvle)"><g><linearGradient id="_lgradient_3" x1="0.1794739218919042" y1="0.12983219881542027" x2="1.0210391302079003" y2="1.022311994902169" gradientTransform="matrix(2048,0,0,2048,0,0)" gradientUnits="userSpaceOnUse"><stop offset="0%" stop-opacity="1" style="stop-color:rgb(17,153,142)"/><stop offset="97.5%" stop-opacity="1" style="stop-color:rgb(56,239,125)"/></linearGradient><circle vector-effect="non-scaling-stroke" cx="1024" cy="1024" r="1023.9999999999999" fill="url(#_lgradient_3)"/><path d=" M 1656.952 517.994 C 1610.912 532.07 1590.076 536.831 1534.997 546.102 C 1469.476 557.223 1447.292 558.005 1338.403 552.677 C 1318.149 551.458 1299.197 550.819 1296.328 550.841 C 1293.458 550.863 1272.625 550.946 1250.2 551.1 C 1175.162 551.485 1086.616 558.853 1030.837 569.113 C 1021.456 570.915 1007.541 573.559 999.631 574.976 C 976.963 579.181 917.081 595.152 888.284 604.947 C 857.172 615.271 816.17 632.63 784.789 648.813 C 762.96 659.89 702.123 697.273 700.674 700.527 C 700.288 701.395 695.149 705.346 689.48 709.321 C 674.427 719.776 640.385 750.111 623.132 768.426 C 530.452 866.238 474.622 991.634 459.409 1136.155 C 453.099 1197.035 454.853 1281.261 462.422 1284.112 C 463.941 1284.788 474.53 1279.104 485.892 1271.685 C 543.955 1234.107 595.908 1212.006 662.951 1196.883 C 737.349 1179.836 814.862 1156.377 897.564 1125.35 C 941.171 1109.151 1004.291 1082.403 1027.157 1070.748 C 1040.037 1064.005 1044.934 1061.765 1071.346 1048.569 C 1101.303 1033.832 1147.857 1007.507 1180.326 987.129 C 1263.983 934.691 1361.688 858.873 1407.485 810.895 C 1411.539 806.461 1415.037 803.859 1414.891 805.354 C 1413.994 813.793 1322.572 904.107 1275.02 943.765 C 1264.767 952.197 1255.961 959.715 1255.768 960.149 C 1254.899 962.101 1183.659 1016.428 1176.712 1020.354 C 1173.093 1022.642 1169.788 1024.81 1169.499 1025.461 C 1169.209 1026.112 1160.765 1032.231 1150.971 1039.049 C 1005.532 1138.586 851.577 1207.037 688.479 1244.643 C 664.7 1250.173 637.183 1257.678 627.68 1261.506 C 556.023 1289.912 484.467 1349.037 403.795 1446.736 C 387.264 1466.932 348.818 1520.002 345.534 1527.379 L 343.312 1532.369 L 367.063 1533.324 C 379.939 1533.598 401.904 1535.059 415.792 1536.563 L 440.891 1539.16 L 454.069 1520.071 C 486.604 1472.687 535.586 1422.228 576.306 1393.826 L 589.502 1384.623 L 604.326 1392.783 C 643.928 1415.354 689.438 1436.917 726.441 1451.312 C 777.282 1470.828 783.429 1472.785 828.995 1483.714 C 1014.825 1528.757 1198.947 1492.974 1364.916 1379.441 C 1375.53 1371.949 1399.076 1354.097 1416.808 1339.375 C 1501.103 1270.324 1548.185 1210.7 1602.219 1104.52 C 1628.704 1052.623 1657.522 974.469 1673.235 912.317 C 1689.312 848.767 1704.868 733.254 1704.686 679.363 C 1704.258 596.246 1697.996 511.053 1691.946 508.879 C 1690.861 508.396 1674.992 512.509 1656.952 517.994 Z " fill="rgb(255,255,255)"/></g></g></svg>